<!-- Generated by IcoMoon.io -->
<svg version="1.1" xmlns="http://www.w3.org/2000/svg" width="16" height="16" viewBox="0 0 16 16">
<path d="M15 12c0 0-4.125 0-5 0s1 3 1 3c0 0.552-0.448 1-1 1h-4c-0.552 0-1-0.448-1-1 0 0 1.906-3 1-3s-5 0-5 0c-0.552 0-1-0.448-1-1v-10c0-0.552 0.448-1 1-1h14c0.552 0 1 0.448 1 1v10c0 0.552-0.448 1-1 1zM8 11.5c0.552 0 1-0.448 1-1s-0.448-1-1-1-1 0.448-1 1 0.448 1 1 1zM15 2c0-0.552-0.448-1-1-1h-12c-0.552 0-1 0.448-1 1v6c0 0.552 0.448 1 1 1h12c0.552 0 1-0.448 1-1v-6z"></path>
</svg>
